<svg version="1.1" viewBox="0.0 0.0 565.2992125984252 371.8608923884514" fill="none" stroke="none" stroke-linecap="square" stroke-miterlimit="10" xmlns:xlink="http://www.w3.org/1999/xlink" xmlns="http://www.w3.org/2000/svg"><clipPath id="p.0"><path d="m0 0l565.2992 0l0 371.8609l-565.2992 0l0 -371.8609z" clip-rule="nonzero"/></clipPath><g clip-path="url(#p.0)"><path fill="#000000" fill-opacity="0.0" d="m0 0l565.2992 0l0 371.8609l-565.2992 0z" fill-rule="evenodd"/><path fill="#ffffff" d="m0.19685039 0l561.8898 0l0 369.22833l-561.8898 0z" fill-rule="evenodd"/><path fill="#6aa84f" d="m245.59055 31.270342l221.7323 0l0 337.98425l-221.7323 0z" fill-rule="evenodd"/><path fill="#f1c232" d="m158.46457 31.270342l87.1181 0l0 337.95273l-87.1181 0z" fill-rule="evenodd"/><path fill="#ffffff" d="m151.74803 151.41508l0 0c0 -9.257111 7.5043793 -16.76149 16.76149 -16.76149l67.043945 0l0 0c4.4454346 0 8.708771 1.7659302 11.852173 4.909317c3.1433868 3.143402 4.909317 7.4067535 4.909317 11.852173l0 146.477c0 9.257141 -7.504364 16.761505 -16.76149 16.761505l-67.043945 0c-9.257111 0 -16.76149 -7.504364 -16.76149 -16.761505z" fill-rule="evenodd"/><path stroke="#000000" stroke-width="2.0" stroke-linejoin="round" stroke-linecap="butt" d="m151.74803 151.41508l0 0c0 -9.257111 7.5043793 -16.76149 16.76149 -16.76149l67.043945 0l0 0c4.4454346 0 8.708771 1.7659302 11.852173 4.909317c3.1433868 3.143402 4.909317 7.4067535 4.909317 11.852173l0 146.477c0 9.257141 -7.504364 16.761505 -16.76149 16.761505l-67.043945 0c-9.257111 0 -16.76149 -7.504364 -16.76149 -16.761505z" fill-rule="evenodd"/><path fill="#6aa84f" d="m158.47244 145.69292l87.1181 0l0 148.12599l-87.1181 0z" fill-rule="evenodd"/><path stroke="#000000" stroke-width="2.0" stroke-linejoin="round" stroke-linecap="butt" d="m158.47244 145.69292l87.1181 0l0 148.12599l-87.1181 0z" fill-rule="evenodd"/><path fill="#000000" fill-opacity="0.0" d="m189.46457 301.9974l0 0c0 -0.5392456 0.43714905 -0.9764099 0.97639465 -0.9764099l23.18106 0c0.2589569 0 0.50730896 0.102874756 0.6904144 0.28598022c0.18312073 0.18310547 0.28598022 0.43145752 0.28598022 0.6904297l0 3.9054565c0 0.5392456 -0.43714905 0.9764099 -0.97639465 0.9764099l-23.18106 0c-0.5392456 0 -0.97639465 -0.4371643 -0.97639465 -0.9764099z" fill-rule="evenodd"/><path stroke="#000000" stroke-width="2.0" stroke-linejoin="round" stroke-linecap="butt" d="m189.46457 301.9974l0 0c0 -0.5392456 0.43714905 -0.9764099 0.97639465 -0.9764099l23.18106 0c0.2589569 0 0.50730896 0.102874756 0.6904144 0.28598022c0.18312073 0.18310547 0.28598022 0.43145752 0.28598022 0.6904297l0 3.9054565c0 0.5392456 -0.43714905 0.9764099 -0.97639465 0.9764099l-23.18106 0c-0.5392456 0 -0.97639465 -0.4371643 -0.97639465 -0.9764099z" fill-rule="evenodd"/><path fill="#000000" fill-opacity="0.0" d="m0.19685039 0l561.8898 0l0 369.22833l-561.8898 0z" fill-rule="evenodd"/><path stroke="#000000" stroke-width="2.0" stroke-linejoin="round" stroke-linecap="butt" d="m0.19685039 0l561.8898 0l0 369.22833l-561.8898 0z" fill-rule="evenodd"/></g></svg>