<svg version="1.1" viewBox="0.0 0.0 495.2965879265092 380.5223097112861" fill="none" stroke="none" stroke-linecap="square" stroke-miterlimit="10" xmlns:xlink="http://www.w3.org/1999/xlink" xmlns="http://www.w3.org/2000/svg"><clipPath id="p.0"><path d="m0 0l495.2966 0l0 380.5223l-495.2966 0l0 -380.5223z" clip-rule="nonzero"/></clipPath><g clip-path="url(#p.0)"><path fill="#000000" fill-opacity="0.0" d="m0 0l495.2966 0l0 380.5223l-495.2966 0z" fill-rule="evenodd"/><path fill="#ffffff" d="m0.19685039 0l492.72443 0l0 378.83466l-492.72443 0z" fill-rule="evenodd"/><defs><radialGradient id="p.1" gradientUnits="userSpaceOnUse" gradientTransform="matrix(15.200562723775148 0.0 0.0 15.200562723775148 0.0 0.0)" spreadMethod="pad" cx="15.963112575018636" cy="13.605830042225913" fx="15.963112575018636" fy="13.605830042225913" r="15.200562477111816"><stop offset="0.0" stop-color="#6aa84f"/><stop offset="0.5" stop-color="#6aa84f"/><stop offset="1.0" stop-color="#f1c232"/></radialGradient></defs><path fill="url(#p.1)" d="m88.36483 34.816273l308.56693 0l0 344.0l-308.56693 0z" fill-rule="evenodd"/><path fill="#ffffff" d="m192.36482 136.76154l0 0c0 -9.257111 7.5043793 -16.76149 16.76149 -16.76149l67.043945 0l0 0c4.4454346 0 8.708771 1.7659378 11.852173 4.9093323c3.143402 3.1433868 4.9093323 7.4067383 4.9093323 11.852158l0 146.47702c0 9.257111 -7.504364 16.761505 -16.761505 16.761505l-67.043945 0c-9.257111 0 -16.76149 -7.5043945 -16.76149 -16.761505z" fill-rule="evenodd"/><path stroke="#000000" stroke-width="2.0" stroke-linejoin="round" stroke-linecap="butt" d="m192.36482 136.76154l0 0c0 -9.257111 7.5043793 -16.76149 16.76149 -16.76149l67.043945 0l0 0c4.4454346 0 8.708771 1.7659378 11.852173 4.9093323c3.143402 3.1433868 4.9093323 7.4067383 4.9093323 11.852158l0 146.47702c0 9.257111 -7.504364 16.761505 -16.761505 16.761505l-67.043945 0c-9.257111 0 -16.76149 -7.5043945 -16.76149 -16.761505z" fill-rule="evenodd"/><path fill="#6aa84f" d="m199.08923 131.03937l87.1181 0l0 148.12598l-87.1181 0z" fill-rule="evenodd"/><path stroke="#000000" stroke-width="2.0" stroke-linejoin="round" stroke-linecap="butt" d="m199.08923 131.03937l87.1181 0l0 148.12598l-87.1181 0z" fill-rule="evenodd"/><path fill="#000000" fill-opacity="0.0" d="m230.08136 287.34384l0 0c0 -0.5392456 0.43714905 -0.9763794 0.9764099 -0.9763794l23.18106 0c0.2589569 0 0.50730896 0.102874756 0.6904144 0.28598022c0.18310547 0.18310547 0.28598022 0.43145752 0.28598022 0.69039917l0 3.905487c0 0.5392456 -0.43714905 0.9763794 -0.97639465 0.9763794l-23.18106 0c-0.53926086 0 -0.9764099 -0.4371338 -0.9764099 -0.9763794z" fill-rule="evenodd"/><path stroke="#000000" stroke-width="2.0" stroke-linejoin="round" stroke-linecap="butt" d="m230.08136 287.34384l0 0c0 -0.5392456 0.43714905 -0.9763794 0.9764099 -0.9763794l23.18106 0c0.2589569 0 0.50730896 0.102874756 0.6904144 0.28598022c0.18310547 0.18310547 0.28598022 0.43145752 0.28598022 0.69039917l0 3.905487c0 0.5392456 -0.43714905 0.9763794 -0.97639465 0.9763794l-23.18106 0c-0.53926086 0 -0.9764099 -0.4371338 -0.9764099 -0.9763794z" fill-rule="evenodd"/><path fill="#000000" fill-opacity="0.0" d="m0.19685039 0l492.72443 0l0 378.83466l-492.72443 0z" fill-rule="evenodd"/><path stroke="#000000" stroke-width="2.0" stroke-linejoin="round" stroke-linecap="butt" d="m0.19685039 0l492.72443 0l0 378.83466l-492.72443 0z" fill-rule="evenodd"/></g></svg>